<?xml version="1.0" standalone="no"?>
<!DOCTYPE svg PUBLIC "-//W3C//DTD SVG 20010904//EN"
 "http://www.w3.org/TR/2001/REC-SVG-20010904/DTD/svg10.dtd">
<svg version="1.0" xmlns="http://www.w3.org/2000/svg"
 width="300.000000pt" height="141.000000pt" viewBox="0 0 300.000000 141.000000"
 preserveAspectRatio="xMidYMid meet">
<metadata>
Created by potrace 1.10, written by Peter Selinger 2001-2011
</metadata>
<g transform="translate(0.000000,141.000000) scale(0.100000,-0.100000)"
fill="#000000" stroke="none">
<path d="M450 1078 c0 -10 14 -17 45 -21 119 -17 235 -132 235 -234 0 -26 4
-33 20 -33 25 0 25 3 0 82 -35 114 -135 198 -252 214 -39 5 -48 4 -48 -8z"/>
<path d="M1320 1040 c0 -5 5 -10 10 -10 15 0 13 -163 -2 -178 -9 -9 5 -12 64
-12 l76 0 4 30 c5 35 -11 40 -30 10 -7 -11 -21 -20 -32 -20 -17 0 -20 7 -20
40 0 29 4 40 15 40 8 0 15 -4 15 -10 0 -5 6 -10 13 -10 6 0 12 13 13 30 1 19
-4 30 -12 30 -8 0 -14 -4 -14 -10 0 -5 -7 -10 -15 -10 -10 0 -15 11 -15 35 0
28 4 35 19 35 10 0 24 -7 31 -15 18 -22 30 -18 30 10 0 24 -2 25 -75 25 -43 0
-75 -4 -75 -10z"/>
<path d="M1870 1030 c0 -13 7 -20 20 -20 13 0 20 7 20 20 0 13 -7 20 -20 20
-13 0 -20 -7 -20 -20z"/>
<path d="M345 1011 c-122 -57 -181 -205 -130 -329 21 -52 100 -124 153 -140
168 -51 332 67 332 238 0 23 -5 61 -12 84 -16 55 -101 140 -154 155 -60 17
-144 13 -189 -8z m206 -42 c77 -39 128 -140 112 -221 -21 -110 -106 -182 -213
-181 -71 1 -119 22 -162 73 -81 94 -76 206 12 291 72 70 162 84 251 38z"/>
<path d="M537 923 c-4 -3 -7 -13 -7 -22 -1 -9 -9 -26 -20 -39 -22 -27 -53 -23
-70 9 -15 27 -37 24 -52 -8 -7 -15 -24 -33 -38 -40 -29 -14 -33 -36 -7 -41 10
-2 20 4 24 15 19 55 62 68 89 28 18 -27 44 -34 44 -11 0 8 16 31 35 52 20 21
33 44 31 51 -6 14 -19 17 -29 6z"/>
<path d="M390 705 c0 -84 0 -85 25 -85 25 0 25 1 25 85 0 84 0 85 -25 85 -25
0 -25 -1 -25 -85z m27 -32 c-2 -21 -4 -6 -4 32 0 39 2 55 4 38 2 -18 2 -50 0
-70z"/>
<path d="M530 705 c0 -78 2 -85 20 -85 18 0 20 7 20 85 0 78 -2 85 -20 85 -18
0 -20 -7 -20 -85z m30 0 c0 -37 -4 -65 -10 -65 -6 0 -10 28 -10 65 0 37 4 65
10 65 6 0 10 -28 10 -65z"/>
<path d="M324 716 c-3 -8 -4 -31 -2 -52 2 -31 7 -39 23 -39 17 0 20 8 23 53 3
47 1 52 -18 52 -11 0 -23 -6 -26 -14z m23 -58 c-2 -13 -4 -5 -4 17 -1 22 1 32
4 23 2 -10 2 -28 0 -40z"/>
<path d="M460 675 c0 -48 2 -55 20 -55 18 0 20 7 20 55 0 48 -2 55 -20 55 -18
0 -20 -7 -20 -55z m30 0 c0 -19 -4 -35 -8 -35 -4 0 -6 16 -4 35 2 19 6 35 8
35 2 0 4 -16 4 -35z"/>
<path d="M1956 1000 c-8 -16 -11 -30 -6 -30 5 0 10 -25 12 -56 3 -64 19 -81
61 -70 33 8 35 23 5 28 -20 3 -23 10 -26 49 -3 45 -2 47 28 51 34 5 31 10 66
-89 15 -43 16 -54 4 -67 -9 -12 -16 -14 -24 -6 -16 16 -26 12 -26 -10 0 -14 7
-20 23 -20 32 0 49 21 87 110 18 41 37 81 42 88 8 9 3 12 -22 12 -26 0 -30 -3
-21 -14 8 -10 7 -23 -5 -52 l-17 -39 -15 44 c-12 36 -12 45 -1 52 9 5 -11 9
-53 9 -61 0 -68 2 -68 20 0 30 -27 24 -44 -10z"/>
<path d="M1760 989 c0 -4 5 -11 10 -14 6 -3 10 -26 10 -50 0 -33 -5 -47 -19
-54 -26 -15 -31 -5 -31 61 l0 58 -32 0 c-25 0 -29 -3 -20 -12 7 -7 12 -38 12
-70 0 -53 2 -58 24 -64 13 -3 34 -1 45 6 14 7 21 7 21 0 0 -5 14 -10 31 -10
27 0 30 2 19 16 -9 9 -13 37 -11 73 2 58 2 59 -28 63 -17 3 -31 1 -31 -3z"/>
<path d="M1850 989 c0 -4 5 -11 10 -14 14 -9 12 -109 -2 -123 -9 -9 -3 -12 30
-12 43 0 51 7 31 27 -6 6 -9 35 -7 66 l3 55 -32 4 c-18 2 -33 1 -33 -3z"/>
<path d="M1517 972 c-22 -24 -22 -95 -1 -116 17 -18 50 -21 59 -6 12 20 25 10
25 -20 0 -17 -7 -33 -17 -39 -14 -8 -7 -10 32 -11 38 0 46 3 37 12 -8 8 -12
46 -12 105 l0 93 -53 0 c-40 0 -58 -5 -70 -18z m73 -11 c26 -49 -5 -122 -38
-89 -23 23 -8 108 18 108 5 0 14 -9 20 -19z"/>
<path d="M1140 635 c0 -203 4 -315 10 -315 6 0 10 112 10 315 0 203 -4 315
-10 315 -6 0 -10 -112 -10 -315z"/>
<path d="M2410 750 c0 -5 5 -10 10 -10 6 0 10 -37 10 -90 0 -53 -4 -90 -10
-90 -5 0 -10 -3 -10 -8 0 -4 18 -7 40 -7 22 0 40 3 40 7 0 5 -5 8 -11 8 -6 0
-9 21 -7 53 3 44 6 52 23 52 16 0 21 -8 23 -44 2 -24 -2 -49 -7 -54 -18 -18
-13 -22 29 -23 22 -1 40 2 40 7 0 5 -4 9 -10 9 -5 0 -10 24 -10 54 0 36 -5 60
-16 70 -18 18 -40 21 -49 6 -13 -22 -25 -8 -25 30 0 38 -2 40 -30 40 -16 0
-30 -4 -30 -10z"/>
<path d="M1328 739 c15 -16 17 -179 2 -179 -5 0 -10 -4 -10 -9 0 -5 18 -8 39
-7 38 1 39 2 34 31 -2 16 -7 36 -9 43 -9 29 32 5 47 -28 11 -22 26 -37 45 -42
15 -4 29 -6 31 -4 6 6 -51 86 -61 86 -6 0 0 9 13 19 25 19 32 64 12 84 -6 6
-44 13 -84 15 -59 3 -70 2 -59 -9z m107 -49 c0 -29 -4 -36 -22 -38 -21 -3 -23
1 -23 38 0 37 2 41 23 38 18 -2 22 -9 22 -38z"/>
<path d="M1546 679 c-45 -36 -33 -120 20 -133 32 -8 84 11 84 30 0 16 -16 19
-25 4 -10 -16 -52 -12 -59 6 -11 30 -6 34 45 34 47 0 50 1 44 23 -8 27 -41 57
-65 57 -9 0 -29 -9 -44 -21z m62 -27 c3 -18 -2 -22 -22 -22 -28 0 -34 18 -14
38 17 17 32 10 36 -16z"/>
<path d="M1702 684 c-33 -22 -28 -51 13 -75 19 -12 35 -27 35 -35 0 -19 -39
-18 -46 1 -9 22 -24 18 -24 -5 0 -24 38 -36 77 -23 20 7 29 17 31 36 3 22 -4
31 -32 48 -39 23 -45 36 -20 46 10 4 22 -1 29 -10 16 -22 25 -21 25 2 0 33
-51 42 -88 15z"/>
<path d="M1846 679 c-45 -36 -33 -120 20 -133 32 -8 84 11 84 30 0 16 -16 19
-25 4 -10 -16 -52 -12 -59 6 -11 30 -6 34 45 34 47 0 50 1 44 23 -8 27 -41 57
-65 57 -9 0 -29 -9 -44 -21z m62 -27 c3 -18 -1 -22 -22 -22 -27 0 -31 7 -20
35 9 23 38 14 42 -13z"/>
<path d="M2003 688 c-13 -6 -23 -17 -23 -25 0 -19 27 -16 38 4 12 21 42 10 42
-16 0 -14 -9 -21 -35 -25 -37 -7 -59 -34 -49 -60 8 -21 39 -29 62 -17 11 6 22
7 26 4 10 -10 56 -12 56 -2 0 5 -4 9 -10 9 -6 0 -10 27 -10 60 0 48 -4 61 -19
70 -24 12 -49 12 -78 -2z m57 -92 c0 -8 -5 -18 -10 -21 -17 -11 -40 3 -34 20
8 19 44 20 44 1z"/>
<path d="M2135 690 c-3 -6 -1 -10 6 -10 8 0 10 -20 7 -68 l-3 -68 32 0 c33 0
42 9 22 21 -8 5 -8 74 0 103 2 7 31 0 31 -8 0 -5 7 -10 15 -10 9 0 15 9 15 25
0 27 -10 31 -42 14 -11 -6 -23 -7 -27 -3 -9 13 -49 15 -56 4z"/>
<path d="M2315 688 c-29 -17 -35 -28 -35 -75 0 -34 5 -46 25 -59 24 -16 55
-14 84 5 22 14 4 33 -18 19 -30 -18 -51 -3 -51 36 0 19 3 41 6 50 8 20 30 21
38 1 8 -22 36 -19 36 4 0 28 -49 39 -85 19z"/>
<path d="M729 652 c-6 -15 -22 -39 -36 -54 -14 -14 -24 -31 -22 -37 7 -17 192
-151 210 -151 44 0 116 121 93 157 -5 8 -60 36 -122 63 l-113 49 -10 -27z m88
-43 c26 -11 58 -25 70 -30 l23 -8 -25 -48 c-14 -26 -23 -53 -21 -60 8 -21 -1
-16 -80 43 -70 53 -74 58 -61 78 7 12 17 27 21 34 10 16 16 15 73 -9z m123
-71 c0 -19 -38 -78 -50 -78 -15 0 -12 16 5 30 8 7 15 20 15 30 0 9 3 20 7 23
10 11 23 8 23 -5z"/>
<path d="M206 602 c-9 -14 66 -80 116 -102 63 -27 168 -39 168 -18 0 12 -16
16 -69 20 -76 6 -143 37 -179 83 -21 27 -28 30 -36 17z"/>
<path d="M2130 440 c0 -13 7 -20 20 -20 13 0 20 7 20 20 0 13 -7 20 -20 20
-13 0 -20 -7 -20 -20z"/>
<path d="M2496 452 c-15 -14 -4 -32 20 -32 18 0 25 5 22 17 -3 16 -31 26 -42
15z"/>
<path d="M1361 363 c-19 -49 -41 -94 -49 -100 -13 -11 -10 -13 19 -13 34 0 35
2 31 30 -4 29 -3 30 32 30 40 0 56 -20 36 -45 -11 -13 -6 -15 34 -15 40 0 45
2 34 14 -8 7 -25 52 -38 100 -21 72 -28 86 -45 86 -17 0 -27 -17 -54 -87z m59
-5 c8 -26 7 -28 -20 -28 -27 0 -29 2 -21 23 5 12 13 31 16 42 6 15 8 17 12 5
2 -8 8 -27 13 -42z"/>
<path d="M2390 426 c0 -8 -7 -22 -16 -30 -8 -9 -11 -16 -5 -16 7 0 11 -22 11
-52 0 -29 4 -59 9 -66 10 -17 73 -12 79 6 2 8 -5 11 -20 10 -21 -3 -23 1 -26
50 -3 50 -2 52 23 52 15 0 24 4 20 10 -3 6 -15 10 -26 10 -13 0 -19 6 -17 17
2 10 -4 19 -14 21 -11 2 -18 -3 -18 -12z"/>
<path d="M1539 382 c-28 -23 -21 -46 21 -70 16 -9 30 -22 30 -29 0 -21 -21
-26 -39 -9 -23 21 -31 20 -31 -4 0 -17 7 -20 39 -20 57 0 71 8 71 41 0 24 -7
33 -35 46 -19 9 -35 21 -35 25 0 15 31 21 43 9 17 -17 27 -13 27 9 0 16 -7 20
-34 20 -19 0 -44 -8 -57 -18z"/>
<path d="M1675 380 c-22 -24 -14 -46 25 -68 16 -9 30 -22 30 -29 0 -21 -21
-26 -39 -9 -23 21 -31 20 -31 -4 0 -17 7 -20 43 -20 48 0 67 13 67 47 0 17
-10 28 -35 40 -19 9 -35 23 -35 30 0 15 36 18 45 3 10 -17 25 -11 25 10 0 17
-7 20 -38 20 -26 0 -45 -7 -57 -20z"/>
<path d="M1820 380 c-26 -26 -27 -90 -2 -113 25 -23 85 -22 105 1 24 26 22 87
-3 112 -11 11 -33 20 -50 20 -17 0 -39 -9 -50 -20z m74 -16 c11 -29 6 -81 -9
-94 -22 -18 -45 5 -45 45 0 46 9 65 30 65 10 0 21 -7 24 -16z"/>
<path d="M1995 376 c-45 -46 -23 -126 35 -126 38 0 60 9 60 26 0 17 -12 18
-27 3 -23 -23 -43 -2 -43 46 0 50 24 73 42 42 13 -24 30 -21 26 6 -5 34 -60
36 -93 3z"/>
<path d="M2110 390 c0 -5 5 -10 10 -10 14 0 12 -104 -2 -118 -9 -9 -2 -12 33
-11 24 0 38 3 32 6 -9 3 -13 28 -13 74 l0 69 -30 0 c-16 0 -30 -4 -30 -10z"/>
<path d="M2233 390 c-13 -5 -23 -16 -23 -25 0 -20 20 -19 35 2 16 21 45 10 45
-17 0 -14 -7 -20 -24 -20 -36 0 -70 -32 -62 -57 6 -19 14 -21 78 -21 51 0 67
3 59 11 -6 6 -11 34 -11 62 0 28 -5 56 -12 63 -14 14 -53 15 -85 2z m57 -90
c0 -24 -26 -38 -42 -22 -8 8 -8 15 2 27 18 21 40 19 40 -5z"/>
<path d="M2485 325 l0 -75 40 1 c22 0 34 3 28 6 -9 3 -13 28 -13 74 0 69 0 69
-27 69 l-28 0 0 -75z"/>
<path d="M2602 383 c-34 -29 -34 -106 0 -124 58 -31 118 2 118 65 0 64 -71 99
-118 59z m69 -30 c11 -28 4 -79 -12 -89 -19 -12 -39 19 -39 61 0 23 3 45 7 48
14 15 34 6 44 -20z"/>
<path d="M2740 390 c0 -5 5 -10 10 -10 14 0 12 -104 -2 -118 -9 -9 -2 -12 31
-12 37 0 42 2 32 14 -7 8 -11 34 -9 58 2 36 7 44 26 46 20 3 22 -1 22 -45 0
-27 -5 -54 -12 -61 -9 -9 -2 -12 31 -12 34 0 41 3 33 13 -6 7 -12 37 -14 66
-4 64 -24 85 -60 62 -16 -10 -23 -10 -26 -2 -5 14 -62 15 -62 1z"/>
<path d="M325 292 l0 -67 30 2 c17 1 38 2 48 2 11 1 17 9 17 23 0 20 -1 20
-18 5 -27 -24 -42 -21 -42 9 0 21 4 24 20 19 16 -5 20 -2 20 16 0 18 -3 20
-12 11 -19 -19 -28 -14 -28 13 0 25 23 35 35 15 9 -15 25 -12 25 5 0 11 -12
15 -47 15 l-48 0 0 -68z"/>
<path d="M525 293 c0 -62 2 -68 21 -68 19 0 20 5 17 63 -4 62 4 75 27 46 11
-12 11 -18 -2 -30 -14 -14 -14 -19 -2 -44 8 -15 23 -30 34 -33 25 -6 25 1 0
33 -17 23 -18 26 -2 43 25 28 4 51 -49 55 l-44 3 0 -68z"/>
<path d="M759 298 c-13 -35 -25 -66 -27 -70 -2 -5 6 -8 17 -8 16 0 20 6 18 22
-1 17 4 24 22 26 21 3 23 1 18 -20 -6 -22 -3 -25 23 -25 30 0 39 10 21 22 -5
3 -17 30 -26 60 -9 31 -21 55 -29 55 -7 0 -24 -28 -37 -62z m39 -16 c-18 -8
-25 4 -15 28 l10 25 6 -25 c4 -14 4 -26 -1 -28z"/>
</g>
</svg>
